{
    "programs": [

    ],
    "streams": [
        {
            "index": 0,
            "codec_name": "hevc",
            "codec_long_name": "H.265 / HEVC (High Efficiency Video Coding)",
            "profile": "Main",
            "codec_type": "video",
            "codec_tag_string": "[0][0][0][0]",
            "codec_tag": "0x0000",
            "width": 1280,
            "height": 720,
            "coded_width": 1280,
            "coded_height": 720,
            "closed_captions": 0,
            "film_grain": 0,
            "has_b_frames": 2,
            "sample_aspect_ratio": "1:1",
            "display_aspect_ratio": "16:9",
            "pix_fmt": "yuv420p",
            "level": 120,
            "color_range": "tv",
            "color_space": "bt709",
            "color_transfer": "bt709",
            "color_primaries": "bt709",
            "chroma_location": "left",
            "refs": 1,
            "r_frame_rate": "24000/1001",
            "avg_frame_rate": "24000/1001",
            "time_base": "1/1000",
            "start_pts": 0,
            "start_time": "0.000000",
            "extradata_size": 1893,
            "disposition": {
                "default": 1,
                "dub": 0,
                "original": 0,
                "comment": 0,
                "lyrics": 0,
                "karaoke": 0,
                "forced": 0,
                "hearing_impaired": 0,
                "visual_impaired": 0,
                "clean_effects": 0,
                "attached_pic": 0,
                "timed_thumbnails": 0,
                "captions": 0,
                "descriptions": 0,
                "metadata": 0,
                "dependent": 0,
                "still_image": 0
            },
            "tags": {
                "BPS": "522299",
                "BPS-eng": "522299",
                "DURATION": "00:23:55.184000000",
                "DURATION-eng": "00:23:55.184000000",
                "NUMBER_OF_FRAMES": "34410",
                "NUMBER_OF_FRAMES-eng": "34410",
                "NUMBER_OF_BYTES": "93699543",
                "NUMBER_OF_BYTES-eng": "93699543",
                "_STATISTICS_WRITING_APP": "mkvmerge v9.2.0 ('Photograph') 64bit",
                "_STATISTICS_WRITING_APP-eng": "mkvmerge v9.2.0 ('Photograph') 64bit",
                "_STATISTICS_WRITING_DATE_UTC": "2018-05-22 06:48:21",
                "_STATISTICS_WRITING_DATE_UTC-eng": "2018-05-22 06:48:21",
                "_STATISTICS_TAGS": "BPS DURATION NUMBER_OF_FRAMES NUMBER_OF_BYTES",
                "_STATISTICS_TAGS-eng": "BPS DURATION NUMBER_OF_FRAMES NUMBER_OF_BYTES"
            }
        },
        {
            "index": 1,
            "codec_name": "aac",
            "codec_long_name": "AAC (Advanced Audio Coding)",
            "profile": "LC",
            "codec_type": "audio",
            "codec_tag_string": "[0][0][0][0]",
            "codec_tag": "0x0000",
            "sample_fmt": "fltp",
            "sample_rate": "44100",
            "channels": 2,
            "channel_layout": "stereo",
            "bits_per_sample": 0,
            "r_frame_rate": "0/0",
            "avg_frame_rate": "0/0",
            "time_base": "1/1000",
            "start_pts": 0,
            "start_time": "0.000000",
            "extradata_size": 2,
            "disposition": {
                "default": 1,
                "dub": 0,
                "original": 0,
                "comment": 0,
                "lyrics": 0,
                "karaoke": 0,
                "forced": 0,
                "hearing_impaired": 0,
                "visual_impaired": 0,
                "clean_effects": 0,
                "attached_pic": 0,
                "timed_thumbnails": 0,
                "captions": 0,
                "descriptions": 0,
                "metadata": 0,
                "dependent": 0,
                "still_image": 0
            },
            "tags": {
                "language": "jpn",
                "title": "Japanese Stereo",
                "BPS": "91298",
                "BPS-eng": "91298",
                "DURATION": "00:23:55.295000000",
                "DURATION-eng": "00:23:55.295000000",
                "NUMBER_OF_FRAMES": "61813",
                "NUMBER_OF_FRAMES-eng": "61813",
                "NUMBER_OF_BYTES": "16380015",
                "NUMBER_OF_BYTES-eng": "16380015",
                "_STATISTICS_WRITING_APP": "mkvmerge v9.2.0 ('Photograph') 64bit",
                "_STATISTICS_WRITING_APP-eng": "mkvmerge v9.2.0 ('Photograph') 64bit",
                "_STATISTICS_WRITING_DATE_UTC": "2018-05-22 06:48:21",
                "_STATISTICS_WRITING_DATE_UTC-eng": "2018-05-22 06:48:21",
                "_STATISTICS_TAGS": "BPS DURATION NUMBER_OF_FRAMES NUMBER_OF_BYTES",
                "_STATISTICS_TAGS-eng": "BPS DURATION NUMBER_OF_FRAMES NUMBER_OF_BYTES"
            }
        },
        {
            "index": 2,
            "codec_name": "ass",
            "codec_long_name": "ASS (Advanced SSA) subtitle",
            "codec_type": "subtitle",
            "codec_tag_string": "[0][0][0][0]",
            "codec_tag": "0x0000",
            "r_frame_rate": "0/0",
            "avg_frame_rate": "0/0",
            "time_base": "1/1000",
            "start_pts": 0,
            "start_time": "0.000000",
            "duration_ts": 1435295,
            "duration": "1435.295000",
            "extradata_size": 1086,
            "disposition": {
                "default": 1,
                "dub": 0,
                "original": 0,
                "comment": 0,
                "lyrics": 0,
                "karaoke": 0,
                "forced": 0,
                "hearing_impaired": 0,
                "visual_impaired": 0,
                "clean_effects": 0,
                "attached_pic": 0,
                "timed_thumbnails": 0,
                "captions": 0,
                "descriptions": 0,
                "metadata": 0,
                "dependent": 0,
                "still_image": 0
            },
            "tags": {
                "language": "eng",
                "title": "English",
                "BPS": "112",
                "BPS-eng": "112",
                "DURATION": "00:23:37.000000000",
                "DURATION-eng": "00:23:37.000000000",
                "NUMBER_OF_FRAMES": "308",
                "NUMBER_OF_FRAMES-eng": "308",
                "NUMBER_OF_BYTES": "19838",
                "NUMBER_OF_BYTES-eng": "19838",
                "_STATISTICS_WRITING_APP": "mkvmerge v9.2.0 ('Photograph') 64bit",
                "_STATISTICS_WRITING_APP-eng": "mkvmerge v9.2.0 ('Photograph') 64bit",
                "_STATISTICS_WRITING_DATE_UTC": "2018-05-22 06:48:21",
                "_STATISTICS_WRITING_DATE_UTC-eng": "2018-05-22 06:48:21",
                "_STATISTICS_TAGS": "BPS DURATION NUMBER_OF_FRAMES NUMBER_OF_BYTES",
                "_STATISTICS_TAGS-eng": "BPS DURATION NUMBER_OF_FRAMES NUMBER_OF_BYTES"
            }
        },
        {
            "index": 3,
            "codec_name": "subrip",
            "codec_long_name": "SubRip subtitle",
            "codec_type": "subtitle",
            "codec_tag_string": "[0][0][0][0]",
            "codec_tag": "0x0000",
            "r_frame_rate": "0/0",
            "avg_frame_rate": "0/0",
            "time_base": "1/1000",
            "start_pts": 0,
            "start_time": "0.000000",
            "disposition": {
                "default": 0,
                "dub": 0,
                "original": 0,
                "comment": 0,
                "lyrics": 0,
                "karaoke": 0,
                "forced": 0,
                "hearing_impaired": 0,
                "visual_impaired": 0,
                "clean_effects": 0,
                "attached_pic": 0,
                "timed_thumbnails": 0,
                "captions": 0,
                "descriptions": 0,
                "metadata": 0,
                "dependent": 0,
                "still_image": 0
            },
            "tags": {
                "language": "ara",
                "title": "Arabic",
                "BPS": "81",
                "BPS-eng": "81",
                "DURATION": "00:23:50.800000000",
                "DURATION-eng": "00:23:50.800000000",
                "NUMBER_OF_FRAMES": "282",
                "NUMBER_OF_FRAMES-eng": "282",
                "NUMBER_OF_BYTES": "14618",
                "NUMBER_OF_BYTES-eng": "14618",
                "_STATISTICS_WRITING_APP": "mkvmerge v9.2.0 ('Photograph') 64bit",
                "_STATISTICS_WRITING_APP-eng": "mkvmerge v9.2.0 ('Photograph') 64bit",
                "_STATISTICS_WRITING_DATE_UTC": "2018-05-22 06:48:21",
                "_STATISTICS_WRITING_DATE_UTC-eng": "2018-05-22 06:48:21",
                "_STATISTICS_TAGS": "BPS DURATION NUMBER_OF_FRAMES NUMBER_OF_BYTES",
                "_STATISTICS_TAGS-eng": "BPS DURATION NUMBER_OF_FRAMES NUMBER_OF_BYTES"
            }
        },
        {
            "index": 4,
            "codec_name": "subrip",
            "codec_long_name": "SubRip subtitle",
            "codec_type": "subtitle",
            "codec_tag_string": "[0][0][0][0]",
            "codec_tag": "0x0000",
            "r_frame_rate": "0/0",
            "avg_frame_rate": "0/0",
            "time_base": "1/1000",
            "start_pts": 0,
            "start_time": "0.000000",
            "duration_ts": 1435295,
            "duration": "1435.295000",
            "disposition": {
                "default": 0,
                "dub": 0,
                "original": 0,
                "comment": 0,
                "lyrics": 0,
                "karaoke": 0,
                "forced": 0,
                "hearing_impaired": 0,
                "visual_impaired": 0,
                "clean_effects": 0,
                "attached_pic": 0,
                "timed_thumbnails": 0,
                "captions": 0,
                "descriptions": 0,
                "metadata": 0,
                "dependent": 0,
                "still_image": 0
            },
            "tags": {
                "language": "por",
                "title": "Portuguese (Brazilian)",
                "BPS": "55",
                "BPS-eng": "55",
                "DURATION": "00:23:33.000000000",
                "DURATION-eng": "00:23:33.000000000",
                "NUMBER_OF_FRAMES": "301",
                "NUMBER_OF_FRAMES-eng": "301",
                "NUMBER_OF_BYTES": "9743",
                "NUMBER_OF_BYTES-eng": "9743",
                "_STATISTICS_WRITING_APP": "mkvmerge v9.2.0 ('Photograph') 64bit",
                "_STATISTICS_WRITING_APP-eng": "mkvmerge v9.2.0 ('Photograph') 64bit",
                "_STATISTICS_WRITING_DATE_UTC": "2018-05-22 06:48:21",
                "_STATISTICS_WRITING_DATE_UTC-eng": "2018-05-22 06:48:21",
                "_STATISTICS_TAGS": "BPS DURATION NUMBER_OF_FRAMES NUMBER_OF_BYTES",
                "_STATISTICS_TAGS-eng": "BPS DURATION NUMBER_OF_FRAMES NUMBER_OF_BYTES"
            }
        },
        {
            "index": 5,
            "codec_name": "subrip",
            "codec_long_name": "SubRip subtitle",
            "codec_type": "subtitle",
            "codec_tag_string": "[0][0][0][0]",
            "codec_tag": "0x0000",
            "r_frame_rate": "0/0",
            "avg_frame_rate": "0/0",
            "time_base": "1/1000",
            "start_pts": 0,
            "start_time": "0.000000",
            "duration_ts": 1435295,
            "duration": "1435.295000",
            "disposition": {
                "default": 0,
                "dub": 0,
                "original": 0,
                "comment": 0,
                "lyrics": 0,
                "karaoke": 0,
                "forced": 0,
                "hearing_impaired": 0,
                "visual_impaired": 0,
                "clean_effects": 0,
                "attached_pic": 0,
                "timed_thumbnails": 0,
                "captions": 0,
                "descriptions": 0,
                "metadata": 0,
                "dependent": 0,
                "still_image": 0
            },
            "tags": {
                "language": "spa",
                "title": "Spanish (LA)",
                "BPS": "50",
                "BPS-eng": "50",
                "DURATION": "00:23:34.350000000",
                "DURATION-eng": "00:23:34.350000000",
                "NUMBER_OF_FRAMES": "306",
                "NUMBER_OF_FRAMES-eng": "306",
                "NUMBER_OF_BYTES": "9000",
                "NUMBER_OF_BYTES-eng": "9000",
                "_STATISTICS_WRITING_APP": "mkvmerge v9.2.0 ('Photograph') 64bit",
                "_STATISTICS_WRITING_APP-eng": "mkvmerge v9.2.0 ('Photograph') 64bit",
                "_STATISTICS_WRITING_DATE_UTC": "2018-05-22 06:48:21",
                "_STATISTICS_WRITING_DATE_UTC-eng": "2018-05-22 06:48:21",
                "_STATISTICS_TAGS": "BPS DURATION NUMBER_OF_FRAMES NUMBER_OF_BYTES",
                "_STATISTICS_TAGS-eng": "BPS DURATION NUMBER_OF_FRAMES NUMBER_OF_BYTES"
            }
        },
        {
            "index": 6,
            "codec_name": "ttf",
            "codec_long_name": "TrueType font",
            "codec_type": "attachment",
            "codec_tag_string": "[0][0][0][0]",
            "codec_tag": "0x0000",
            "r_frame_rate": "0/0",
            "avg_frame_rate": "0/0",
            "time_base": "1/90000",
            "start_pts": 0,
            "start_time": "0.000000",
            "duration_ts": 129176550,
            "duration": "1435.295000",
            "extradata_size": 221328,
            "disposition": {
                "default": 0,
                "dub": 0,
                "original": 0,
                "comment": 0,
                "lyrics": 0,
                "karaoke": 0,
                "forced": 0,
                "hearing_impaired": 0,
                "visual_impaired": 0,
                "clean_effects": 0,
                "attached_pic": 0,
                "timed_thumbnails": 0,
                "captions": 0,
                "descriptions": 0,
                "metadata": 0,
                "dependent": 0,
                "still_image": 0
            },
            "tags": {
                "filename": "OpenSans-Semibold.ttf",
                "mimetype": "application/x-truetype-font"
            }
        }
    ]
}